<mxfile host="app.diagrams.net" modified="2024-07-01T21:26:10.686Z" agent="Mozilla/5.0 (X11; Ubuntu; Linux x86_64; rv:127.0) Gecko/20100101 Firefox/127.0" etag="ARykqGxTGM0u_y_4FJly" version="24.6.1" type="device">
  <diagram id="R2lEEEUBdFMjLlhIrx00" name="Page-1">
    <mxGraphModel dx="794" dy="1120" grid="1" gridSize="10" guides="1" tooltips="1" connect="1" arrows="1" fold="1" page="1" pageScale="1" pageWidth="850" pageHeight="1100" math="0" shadow="0" extFonts="Permanent Marker^https://fonts.googleapis.com/css?family=Permanent+Marker">
      <root>
        <mxCell id="0" />
        <mxCell id="1" parent="0" />
        <mxCell id="O0EeKvBt-xyRI-109eGp-1" value="Región" style="rounded=0;whiteSpace=wrap;html=1;sketch=1;curveFitting=1;jiggle=2;fillColor=#dae8fc;strokeColor=#6c8ebf;" parent="1" vertex="1">
          <mxGeometry x="80" y="80" width="120" height="40" as="geometry" />
        </mxCell>
        <mxCell id="O0EeKvBt-xyRI-109eGp-2" value="Pokemon" style="rounded=0;whiteSpace=wrap;html=1;sketch=1;curveFitting=1;jiggle=2;fillColor=#dae8fc;strokeColor=#6c8ebf;" parent="1" vertex="1">
          <mxGeometry x="440" y="400" width="120" height="40" as="geometry" />
        </mxCell>
        <mxCell id="O0EeKvBt-xyRI-109eGp-3" value="Entrenador" style="rounded=0;whiteSpace=wrap;html=1;sketch=1;curveFitting=1;jiggle=2;fillColor=#dae8fc;strokeColor=#6c8ebf;" parent="1" vertex="1">
          <mxGeometry x="80" y="400" width="120" height="40" as="geometry" />
        </mxCell>
        <mxCell id="O0EeKvBt-xyRI-109eGp-5" value="Tipo" style="rounded=0;whiteSpace=wrap;html=1;sketch=1;curveFitting=1;jiggle=2;fillColor=#dae8fc;strokeColor=#6c8ebf;" parent="1" vertex="1">
          <mxGeometry x="436.38" y="240" width="120" height="40" as="geometry" />
        </mxCell>
        <mxCell id="O0EeKvBt-xyRI-109eGp-6" value="Localización" style="rounded=0;whiteSpace=wrap;html=1;sketch=1;curveFitting=1;jiggle=2;fillColor=#dae8fc;strokeColor=#6c8ebf;" parent="1" vertex="1">
          <mxGeometry x="80" y="240" width="120" height="40" as="geometry" />
        </mxCell>
        <mxCell id="O0EeKvBt-xyRI-109eGp-14" value="(1,1)" style="edgeStyle=orthogonalEdgeStyle;rounded=0;orthogonalLoop=1;jettySize=auto;html=1;endArrow=none;endFill=0;sketch=1;curveFitting=1;jiggle=2;startArrow=none;startFill=0;" parent="1" source="O0EeKvBt-xyRI-109eGp-11" target="O0EeKvBt-xyRI-109eGp-1" edge="1">
          <mxGeometry relative="1" as="geometry" />
        </mxCell>
        <mxCell id="O0EeKvBt-xyRI-109eGp-15" value="(1,n)" style="edgeStyle=orthogonalEdgeStyle;rounded=0;orthogonalLoop=1;jettySize=auto;html=1;endArrow=none;endFill=0;sketch=1;curveFitting=1;jiggle=2;startArrow=none;startFill=0;" parent="1" source="O0EeKvBt-xyRI-109eGp-11" target="O0EeKvBt-xyRI-109eGp-6" edge="1">
          <mxGeometry relative="1" as="geometry" />
        </mxCell>
        <mxCell id="O0EeKvBt-xyRI-109eGp-11" value="contiene" style="rhombus;whiteSpace=wrap;html=1;sketch=1;curveFitting=1;jiggle=2;fillColor=#d5e8d4;strokeColor=#82b366;" parent="1" vertex="1">
          <mxGeometry x="100" y="160" width="80" height="40" as="geometry" />
        </mxCell>
        <mxCell id="O0EeKvBt-xyRI-109eGp-40" value="" style="rounded=0;orthogonalLoop=1;jettySize=auto;html=1;sketch=1;curveFitting=1;jiggle=2;strokeWidth=0.5;endArrow=none;endFill=0;" parent="1" source="O0EeKvBt-xyRI-109eGp-37" target="O0EeKvBt-xyRI-109eGp-1" edge="1">
          <mxGeometry relative="1" as="geometry" />
        </mxCell>
        <mxCell id="O0EeKvBt-xyRI-109eGp-37" value="nombre" style="ellipse;whiteSpace=wrap;html=1;sketch=1;curveFitting=1;jiggle=2;fontStyle=4;fillColor=#f8cecc;strokeColor=#b85450;" parent="1" vertex="1">
          <mxGeometry x="240" y="85" width="80" height="30" as="geometry" />
        </mxCell>
        <mxCell id="O0EeKvBt-xyRI-109eGp-41" value="" style="rounded=0;orthogonalLoop=1;jettySize=auto;html=1;sketch=1;curveFitting=1;jiggle=2;strokeWidth=0.5;endArrow=none;endFill=0;" parent="1" source="O0EeKvBt-xyRI-109eGp-42" target="O0EeKvBt-xyRI-109eGp-2" edge="1">
          <mxGeometry relative="1" as="geometry">
            <mxPoint x="385" y="581" as="targetPoint" />
          </mxGeometry>
        </mxCell>
        <mxCell id="O0EeKvBt-xyRI-109eGp-42" value="num" style="ellipse;whiteSpace=wrap;html=1;sketch=1;curveFitting=1;jiggle=2;fontStyle=4;fillColor=#f8cecc;strokeColor=#b85450;" parent="1" vertex="1">
          <mxGeometry x="340" y="480" width="80" height="30" as="geometry" />
        </mxCell>
        <mxCell id="O0EeKvBt-xyRI-109eGp-43" value="" style="rounded=0;orthogonalLoop=1;jettySize=auto;html=1;sketch=1;curveFitting=1;jiggle=2;strokeWidth=0.5;endArrow=none;endFill=0;" parent="1" source="O0EeKvBt-xyRI-109eGp-44" target="O0EeKvBt-xyRI-109eGp-3" edge="1">
          <mxGeometry relative="1" as="geometry">
            <mxPoint x="129.56521739130437" y="390" as="targetPoint" />
          </mxGeometry>
        </mxCell>
        <mxCell id="O0EeKvBt-xyRI-109eGp-44" value="alias" style="ellipse;whiteSpace=wrap;html=1;sketch=1;curveFitting=1;jiggle=2;fontStyle=4;fillColor=#f8cecc;strokeColor=#b85450;" parent="1" vertex="1">
          <mxGeometry x="100" y="480" width="80" height="30" as="geometry" />
        </mxCell>
        <mxCell id="O0EeKvBt-xyRI-109eGp-45" value="" style="rounded=0;orthogonalLoop=1;jettySize=auto;html=1;sketch=1;curveFitting=1;jiggle=2;strokeWidth=0.5;endArrow=none;endFill=0;" parent="1" source="O0EeKvBt-xyRI-109eGp-46" target="O0EeKvBt-xyRI-109eGp-6" edge="1">
          <mxGeometry relative="1" as="geometry">
            <mxPoint x="220" y="331" as="targetPoint" />
          </mxGeometry>
        </mxCell>
        <mxCell id="O0EeKvBt-xyRI-109eGp-46" value="nombre" style="ellipse;whiteSpace=wrap;html=1;sketch=1;curveFitting=1;jiggle=2;fontStyle=4;fillColor=#f8cecc;strokeColor=#b85450;" parent="1" vertex="1">
          <mxGeometry x="240" y="190" width="80" height="30" as="geometry" />
        </mxCell>
        <mxCell id="O0EeKvBt-xyRI-109eGp-50" value="" style="rounded=0;orthogonalLoop=1;jettySize=auto;html=1;sketch=1;curveFitting=1;jiggle=2;strokeWidth=0.5;endArrow=none;endFill=0;" parent="1" source="O0EeKvBt-xyRI-109eGp-51" target="O0EeKvBt-xyRI-109eGp-5" edge="1">
          <mxGeometry relative="1" as="geometry">
            <mxPoint x="720" y="201" as="targetPoint" />
          </mxGeometry>
        </mxCell>
        <mxCell id="O0EeKvBt-xyRI-109eGp-51" value="nombre" style="ellipse;whiteSpace=wrap;html=1;sketch=1;curveFitting=1;jiggle=2;fontStyle=4;fillColor=#f8cecc;strokeColor=#b85450;" parent="1" vertex="1">
          <mxGeometry x="456.38" y="165" width="80" height="30" as="geometry" />
        </mxCell>
        <mxCell id="TDY5MTZfK3qfBboJI3mj-2" value="fecha_nacimiento" style="ellipse;whiteSpace=wrap;html=1;sketch=1;curveFitting=1;jiggle=2;fontStyle=0;fillColor=#f8cecc;strokeColor=#b85450;" vertex="1" parent="1">
          <mxGeometry x="80" y="325" width="120" height="30" as="geometry" />
        </mxCell>
        <mxCell id="TDY5MTZfK3qfBboJI3mj-3" value="" style="rounded=0;orthogonalLoop=1;jettySize=auto;html=1;sketch=1;curveFitting=1;jiggle=2;strokeWidth=0.5;endArrow=none;endFill=0;" edge="1" parent="1" source="TDY5MTZfK3qfBboJI3mj-2" target="O0EeKvBt-xyRI-109eGp-3">
          <mxGeometry relative="1" as="geometry">
            <mxPoint x="90" y="430" as="targetPoint" />
            <mxPoint x="40" y="430" as="sourcePoint" />
          </mxGeometry>
        </mxCell>
        <mxCell id="TDY5MTZfK3qfBboJI3mj-4" value="captura" style="rhombus;whiteSpace=wrap;html=1;sketch=1;curveFitting=1;jiggle=2;fillColor=#d5e8d4;strokeColor=#82b366;" vertex="1" parent="1">
          <mxGeometry x="280" y="330" width="80" height="40" as="geometry" />
        </mxCell>
        <mxCell id="TDY5MTZfK3qfBboJI3mj-5" value="nombre" style="ellipse;whiteSpace=wrap;html=1;sketch=1;curveFitting=1;jiggle=2;fontStyle=0;fillColor=#f8cecc;strokeColor=#b85450;" vertex="1" parent="1">
          <mxGeometry x="436.38" y="480" width="120" height="30" as="geometry" />
        </mxCell>
        <mxCell id="TDY5MTZfK3qfBboJI3mj-6" value="" style="rounded=0;orthogonalLoop=1;jettySize=auto;html=1;sketch=1;curveFitting=1;jiggle=2;strokeWidth=0.5;endArrow=none;endFill=0;" edge="1" parent="1" source="O0EeKvBt-xyRI-109eGp-2" target="TDY5MTZfK3qfBboJI3mj-5">
          <mxGeometry relative="1" as="geometry">
            <mxPoint x="281" y="250" as="targetPoint" />
            <mxPoint x="342" y="226" as="sourcePoint" />
          </mxGeometry>
        </mxCell>
        <mxCell id="TDY5MTZfK3qfBboJI3mj-7" value="pertenece" style="rhombus;whiteSpace=wrap;html=1;sketch=1;curveFitting=1;jiggle=2;fillColor=#d5e8d4;strokeColor=#82b366;" vertex="1" parent="1">
          <mxGeometry x="460" y="320" width="80" height="40" as="geometry" />
        </mxCell>
        <mxCell id="TDY5MTZfK3qfBboJI3mj-9" value="(1,1)" style="rounded=0;orthogonalLoop=1;jettySize=auto;html=1;sketch=1;curveFitting=1;jiggle=2;strokeWidth=0.5;endArrow=none;endFill=0;" edge="1" parent="1" source="O0EeKvBt-xyRI-109eGp-5" target="TDY5MTZfK3qfBboJI3mj-7">
          <mxGeometry relative="1" as="geometry">
            <mxPoint x="281" y="250" as="targetPoint" />
            <mxPoint x="342" y="226" as="sourcePoint" />
          </mxGeometry>
        </mxCell>
        <mxCell id="TDY5MTZfK3qfBboJI3mj-10" value="(0,n)" style="rounded=0;orthogonalLoop=1;jettySize=auto;html=1;sketch=1;curveFitting=1;jiggle=2;strokeWidth=0.5;endArrow=none;endFill=0;" edge="1" parent="1" source="O0EeKvBt-xyRI-109eGp-2" target="TDY5MTZfK3qfBboJI3mj-7">
          <mxGeometry relative="1" as="geometry">
            <mxPoint x="291" y="260" as="targetPoint" />
            <mxPoint x="352" y="236" as="sourcePoint" />
          </mxGeometry>
        </mxCell>
        <mxCell id="TDY5MTZfK3qfBboJI3mj-11" value="(0,n)" style="rounded=0;orthogonalLoop=1;jettySize=auto;html=1;sketch=1;curveFitting=1;jiggle=2;strokeWidth=0.5;endArrow=none;endFill=0;" edge="1" parent="1" source="TDY5MTZfK3qfBboJI3mj-12" target="O0EeKvBt-xyRI-109eGp-6">
          <mxGeometry relative="1" as="geometry">
            <mxPoint x="221" y="270" as="targetPoint" />
            <mxPoint x="230" y="260" as="sourcePoint" />
          </mxGeometry>
        </mxCell>
        <mxCell id="TDY5MTZfK3qfBboJI3mj-12" value="genera" style="rhombus;whiteSpace=wrap;html=1;sketch=1;curveFitting=1;jiggle=2;fillColor=#d5e8d4;strokeColor=#82b366;" vertex="1" parent="1">
          <mxGeometry x="280" y="240" width="80" height="40" as="geometry" />
        </mxCell>
        <mxCell id="TDY5MTZfK3qfBboJI3mj-14" value="(1,1)" style="rounded=0;orthogonalLoop=1;jettySize=auto;html=1;sketch=1;curveFitting=1;jiggle=2;strokeWidth=0.5;endArrow=none;endFill=0;" edge="1" parent="1" source="O0EeKvBt-xyRI-109eGp-5" target="TDY5MTZfK3qfBboJI3mj-12">
          <mxGeometry relative="1" as="geometry">
            <mxPoint x="320" y="270" as="targetPoint" />
            <mxPoint x="290" y="270" as="sourcePoint" />
          </mxGeometry>
        </mxCell>
        <mxCell id="TDY5MTZfK3qfBboJI3mj-15" value="" style="rounded=0;orthogonalLoop=1;jettySize=auto;html=1;sketch=1;curveFitting=1;jiggle=2;strokeWidth=0.5;endArrow=none;endFill=0;" edge="1" parent="1" source="TDY5MTZfK3qfBboJI3mj-4" target="O0EeKvBt-xyRI-109eGp-6">
          <mxGeometry relative="1" as="geometry">
            <mxPoint x="220" y="280" as="targetPoint" />
            <mxPoint x="300" y="280" as="sourcePoint" />
          </mxGeometry>
        </mxCell>
        <mxCell id="TDY5MTZfK3qfBboJI3mj-16" value="" style="rounded=0;orthogonalLoop=1;jettySize=auto;html=1;sketch=1;curveFitting=1;jiggle=2;strokeWidth=0.5;endArrow=none;endFill=0;" edge="1" parent="1" source="TDY5MTZfK3qfBboJI3mj-4" target="O0EeKvBt-xyRI-109eGp-3">
          <mxGeometry relative="1" as="geometry">
            <mxPoint x="184" y="290" as="targetPoint" />
            <mxPoint x="302" y="359" as="sourcePoint" />
          </mxGeometry>
        </mxCell>
        <mxCell id="TDY5MTZfK3qfBboJI3mj-17" value="" style="rounded=0;orthogonalLoop=1;jettySize=auto;html=1;sketch=1;curveFitting=1;jiggle=2;strokeWidth=0.5;endArrow=none;endFill=0;" edge="1" parent="1" source="O0EeKvBt-xyRI-109eGp-2" target="TDY5MTZfK3qfBboJI3mj-4">
          <mxGeometry relative="1" as="geometry">
            <mxPoint x="194" y="300" as="targetPoint" />
            <mxPoint x="312" y="369" as="sourcePoint" />
          </mxGeometry>
        </mxCell>
        <mxCell id="TDY5MTZfK3qfBboJI3mj-18" value="(0,n)" style="text;whiteSpace=wrap;html=1;fontSize=11;" vertex="1" parent="1">
          <mxGeometry x="412.38" y="388" width="30" height="20" as="geometry" />
        </mxCell>
        <mxCell id="TDY5MTZfK3qfBboJI3mj-19" value="(0,m)" style="text;whiteSpace=wrap;html=1;fontSize=11;" vertex="1" parent="1">
          <mxGeometry x="200" y="393" width="30" height="20" as="geometry" />
        </mxCell>
        <mxCell id="TDY5MTZfK3qfBboJI3mj-20" value="(0,p)" style="text;whiteSpace=wrap;html=1;fontSize=11;" vertex="1" parent="1">
          <mxGeometry x="190" y="370" width="30" height="20" as="geometry" />
        </mxCell>
        <mxCell id="TDY5MTZfK3qfBboJI3mj-21" value="(0,n)" style="text;whiteSpace=wrap;html=1;fontSize=11;" vertex="1" parent="1">
          <mxGeometry x="188" y="287" width="30" height="20" as="geometry" />
        </mxCell>
        <mxCell id="TDY5MTZfK3qfBboJI3mj-22" value="(0,m)" style="text;whiteSpace=wrap;html=1;fontSize=11;" vertex="1" parent="1">
          <mxGeometry x="204" y="272" width="30" height="20" as="geometry" />
        </mxCell>
        <mxCell id="TDY5MTZfK3qfBboJI3mj-23" value="(0,p)" style="text;whiteSpace=wrap;html=1;fontSize=11;" vertex="1" parent="1">
          <mxGeometry x="425" y="371" width="30" height="20" as="geometry" />
        </mxCell>
        <mxCell id="TDY5MTZfK3qfBboJI3mj-24" value="fecha" style="ellipse;whiteSpace=wrap;html=1;sketch=1;curveFitting=1;jiggle=2;fontStyle=0;fillColor=#f8cecc;strokeColor=#b85450;" vertex="1" parent="1">
          <mxGeometry x="230" y="400" width="80" height="30" as="geometry" />
        </mxCell>
        <mxCell id="TDY5MTZfK3qfBboJI3mj-25" value="" style="rounded=0;orthogonalLoop=1;jettySize=auto;html=1;sketch=1;curveFitting=1;jiggle=2;strokeWidth=0.5;endArrow=none;endFill=0;" edge="1" parent="1" source="TDY5MTZfK3qfBboJI3mj-4" target="TDY5MTZfK3qfBboJI3mj-24">
          <mxGeometry relative="1" as="geometry">
            <mxPoint x="150" y="450" as="targetPoint" />
            <mxPoint x="150" y="490" as="sourcePoint" />
          </mxGeometry>
        </mxCell>
        <mxCell id="TDY5MTZfK3qfBboJI3mj-26" value="nivel" style="ellipse;whiteSpace=wrap;html=1;sketch=1;curveFitting=1;jiggle=2;fontStyle=0;fillColor=#f8cecc;strokeColor=#b85450;" vertex="1" parent="1">
          <mxGeometry x="330" y="400" width="80" height="30" as="geometry" />
        </mxCell>
        <mxCell id="TDY5MTZfK3qfBboJI3mj-27" value="" style="rounded=0;orthogonalLoop=1;jettySize=auto;html=1;sketch=1;curveFitting=1;jiggle=2;strokeWidth=0.5;endArrow=none;endFill=0;" edge="1" parent="1" source="TDY5MTZfK3qfBboJI3mj-26" target="TDY5MTZfK3qfBboJI3mj-4">
          <mxGeometry relative="1" as="geometry">
            <mxPoint x="353" y="369" as="targetPoint" />
            <mxPoint x="459" y="410" as="sourcePoint" />
          </mxGeometry>
        </mxCell>
      </root>
    </mxGraphModel>
  </diagram>
</mxfile>
